<svg id="Layer_1" data-name="Layer 1" xmlns="http://www.w3.org/2000/svg" viewBox="0 0 441.22 117.66"><defs><style>.cls-1{fill:#0582b5}</style></defs><title>1.Arabic Logo</title><path class="cls-1" d="M638.26 270l-.15.26a18.66 18.66 0 0 1-16.28 9.56h-8.73a14.61 14.61 0 0 1-6.46-1.29 14 14 0 0 1-4.34-3.26 11.86 11.86 0 0 1-2.38-4.34 16.36 16.36 0 0 1-.72-4.55 15.21 15.21 0 0 1 1.24-6.36 13 13 0 0 1 3.41-4.65 14.76 14.76 0 0 1 5-2.84 19.18 19.18 0 0 1 6.05-.93 22.48 22.48 0 0 1 9.41 1.86 24.56 24.56 0 0 1 6.51 4.35 11.25 11.25 0 0 0 2.28-1.71 17.72 17.72 0 0 0 2.54-2.69 15.54 15.54 0 0 0 2.12-3.46 10.18 10.18 0 0 0 .88-4.14 9 9 0 0 0-.88-4.14 11.32 11.32 0 0 0-2.48-3.1 22.28 22.28 0 0 0-8.94-4.7 44.84 44.84 0 0 0-12.92-1.87 44.33 44.33 0 0 0-14.27 2.22 37.24 37.24 0 0 0-11.89 6.46 30.42 30.42 0 0 0-8.12 10.13 29.75 29.75 0 0 0-2.94 13.34 34.14 34.14 0 0 0 1.08 8.69 21.73 21.73 0 0 0 1.92 4.76c-.5 1.23-2 2.26-5.12 2.17h-14.24a43.39 43.39 0 0 0 2.79-15.54c0-16.73-10.89-33.66-31.65-33.66-20.07 0-33 14-33 35.82a31.16 31.16 0 0 0 2.89 13.33H494c-2.75-.1-1-.15-4.37-.15-4.42 0-9.42-1.37-9.42-11.92v-44.47c0-7.41-5.89-12.81-13.94-12.81h-7v59.88c0 20.56 14.62 29.73 29 29.73h87.24c3.91-.67 8.76-2 11.63-5a27.66 27.66 0 0 0 3.16 1.84 29.63 29.63 0 0 0 11.84 3.36h18.61a22.77 22.77 0 0 0 22.8-22.8V270h-5.4zM531 279.71c-5 0-11.58-.71-11.58-15.43 0-4.32 1.46-14.38 10.63-14.38 5.42 0 11.15 1.72 11.15 16.54 0 4.26-1 13.27-10.21 13.27m-145.86-50.14c-20 0-33 14.06-33 35.81 0 .89 0 1.67.07 2.11v3.37c0 6.75-3.06 10.16-8.18 10.16-4.39 0-9.42-.73-9.42-11.29v-46.55c0-7.43-5.86-12.82-13.93-12.82h-6.92v60.74c0 20.53 14.59 29.11 29 29.11 9 0 16.48-2.17 21.89-7.46 5.3 4.07 11.85 7.12 19.1 7.12 20 0 33-14.93 33-36.62 0-16.73-10.87-33.67-31.65-33.67m0 50.08c-5 0-11.57-1.7-11.57-16.41 0-4.32 1-14.38 10.22-14.38 5 0 11.55 1.72 11.55 16.52 0 4.29-1 14.27-10.2 14.27m49.7-43.16h-7.16V297c0 4.91-3.25 5.82-5.52 6-1.07.08-5.06.41-7.24.41h-2.45v8.41c0 5.65 5.34 9.76 12.7 9.76 14 0 23.39-9.27 23.39-23.08v-48.63c0-8.25-5.26-13.37-13.71-13.37" transform="translate(-202.44 -206.54)"/><path class="cls-1" d="M519.68 225.08a9.27 9.27 0 1 0-9.33-9.33 9.45 9.45 0 0 0 9.33 9.33m21.85 0a9.27 9.27 0 1 0-9.33-9.33 9.45 9.45 0 0 0 9.33 9.33m-287.39 80.57a9.3 9.3 0 0 0-9.35 9.21 9.46 9.46 0 0 0 9.35 9.33 9.27 9.27 0 0 0 0-18.54m38.55-68.89h-7.38V269c0 6.74-3.06 10.77-8.18 10.77-6.43 0-43.82 0-45.59-.1h-.81c-3.4-.44-7.43-2.43-7.43-11.76v-31.13h-6.93c-8.08 0-13.94 5.38-13.94 12.8v19.68c0 20.53 14.59 30.85 29 30.85h44.4c20.93 0 30.3-15.65 30.3-30.05v-20.5c0-7.42-5.68-12.8-13.49-12.8" transform="translate(-202.44 -206.54)"/></svg>